HIERARCHY
ROOT SpineBase
{
  OFFSET 0.000000 0.000000 0.000000
  CHANNELS 6 Xposition Yposition Zposition Zrotation Xrotation Yrotation
  JOINT SpineMid
  {
    OFFSET 0.000000 31.111154 0.000000
    CHANNELS 3 Zrotation Xrotation Yrotation
    JOINT SpineShoulder
    {
      OFFSET -0.129454 23.072950 -0.796212
      CHANNELS 3 Zrotation Xrotation Yrotation
      JOINT Neck
      {
        OFFSET -0.116936 7.627773 -0.601152
        CHANNELS 3 Zrotation Xrotation Yrotation
        JOINT Head
        {
          OFFSET -3.479287 13.452231 -0.266736
          CHANNELS 3 Zrotation Xrotation Yrotation
          End Site
          {
            OFFSET 0 0 0
          }
        }
      }
      JOINT ShoulderLeft
      {
        OFFSET -14.524527 -5.200565 9.822051
        CHANNELS 3 Zrotation Xrotation Yrotation
        JOINT ElbowLeft
        {
          OFFSET -3.646470 -27.085123 2.573581
          CHANNELS 3 Zrotation Xrotation Yrotation
          JOINT WristLeft
          {
            OFFSET -2.714175 -21.965414 -4.156612
            CHANNELS 3 Zrotation Xrotation Yrotation
            JOINT HandLeft
            {
              OFFSET -2.228938 -7.558006 0.411767
              CHANNELS 3 Zrotation Xrotation Yrotation
              JOINT HandTipLeft
              {
                OFFSET 0.115481 -7.036058 -0.308259
                CHANNELS 3 Zrotation Xrotation Yrotation
                End Site
                {
                  OFFSET 0 0 0
                }
              }
              JOINT ThumbLeft
              {
                OFFSET -2.983407 0.172189 -2.157850
                CHANNELS 3 Zrotation Xrotation Yrotation
                End Site
                {
                  OFFSET 0 0 0
                }
              }
            }
          }
        }
      }
      JOINT ShoulderRight
      {
        OFFSET 11.885819 -3.373362 -9.946702
        CHANNELS 3 Zrotation Xrotation Yrotation
        JOINT ElbowRight
        {
          OFFSET 8.053623 -26.138679 -4.918304
          CHANNELS 3 Zrotation Xrotation Yrotation
          JOINT WristRight
          {
            OFFSET 0.663904 -21.941692 -7.027901
            CHANNELS 3 Zrotation Xrotation Yrotation
            JOINT HandRight
            {
              OFFSET -0.656079 -5.403911 0.572215
              CHANNELS 3 Zrotation Xrotation Yrotation
              JOINT HandTipRight
              {
                OFFSET -0.352841 -6.498536 -2.495427
                CHANNELS 3 Zrotation Xrotation Yrotation
                End Site
                {
                  OFFSET 0 0 0
                }
              }
              JOINT ThumbRight
              {
                OFFSET 2.662532 2.316893 -2.312576
                CHANNELS 3 Zrotation Xrotation Yrotation
                End Site
                {
                  OFFSET 0 0 0
                }
              }
            }
          }
        }
      }
    }
  }
  JOINT HipLeft
  {
    OFFSET -6.274136 -0.175575 0.186168
    CHANNELS 3 Zrotation Xrotation Yrotation
    JOINT KneeLeft
    {
      OFFSET 1.036253 -34.110428 5.120600
      CHANNELS 3 Zrotation Xrotation Yrotation
      JOINT AnkleLeft
      {
        OFFSET 2.604306 -37.221374 9.002594
        CHANNELS 3 Zrotation Xrotation Yrotation
        JOINT FootLeft
        {
          OFFSET -7.197269 -3.603947 -12.157586
          CHANNELS 3 Zrotation Xrotation Yrotation
          End Site
          {
            OFFSET 0 0 0
          }
        }
      }
    }
  }
  JOINT HipRight
  {
    OFFSET 4.492767 1.435832 -7.683265
    CHANNELS 3 Zrotation Xrotation Yrotation
    JOINT KneeRight
    {
      OFFSET 7.278437 -35.997639 -4.453112
      CHANNELS 3 Zrotation Xrotation Yrotation
      JOINT AnkleRight
      {
        OFFSET 6.347516 -34.614760 3.218732
        CHANNELS 3 Zrotation Xrotation Yrotation
        JOINT FootRight
        {
          OFFSET -7.426244 -3.574424 -12.087671
          CHANNELS 3 Zrotation Xrotation Yrotation
          End Site
          {
            OFFSET 0 0 0
          }
        }
      }
    }
  }
}
MOTION
Frames: 5
Frame Time: 0.033333
90.037392 79.613237 374.849986 -0.000000 0.000000 36.162733 -0.000000 0.000000 -36.162733 -0.000000 0.000000 0.000000 -0.000000 0.000000 0.000000 0.000000 0.000000 0.000000 -0.000000 0.000000 0.000000 -0.000000 0.000000 0.000000 -0.000000 0.000000 0.000000 -0.000000 0.000000 0.000000 0.000000 0.000000 0.000000 0.000000 0.000000 0.000000 -0.000000 0.000000 0.000000 -0.000000 0.000000 0.000000 -0.000000 0.000000 0.000000 -0.000000 0.000000 0.000000 0.000000 0.000000 0.000000 0.000000 0.000000 0.000000 -0.000000 0.000000 -36.162733 -0.000000 0.000000 0.000000 -0.000000 0.000000 0.000000 0.000000 0.000000 0.000000 -0.000000 0.000000 -36.162733 -0.000000 0.000000 0.000000 -0.000000 0.000000 0.000000 0.000000 0.000000 0.000000
90.073657 79.631514 374.770341 -0.025803 0.102307 36.193217 -0.039590 -0.097802 -36.193228 -0.000000 0.000000 0.000000 -0.000000 0.000000 0.000000 0.000000 0.000000 0.000000 -0.000000 0.000000 0.000000 -1.374100 -0.945007 0.365508 1.524072 2.657140 -0.893922 -1.042464 -0.488764 0.542123 0.000000 0.000000 0.000000 0.000000 0.000000 0.000000 -0.000000 0.000000 0.000000 0.685879 -1.139598 -0.248095 -0.381700 0.069755 0.420327 -0.693152 -1.171388 0.112429 0.000000 0.000000 0.000000 0.000000 0.000000 0.000000 -0.039590 -0.097802 -36.193228 -0.000000 0.000000 0.000000 -0.000000 0.000000 0.000000 0.000000 0.000000 0.000000 -0.039590 -0.097802 -36.193228 -0.000000 0.000000 0.000000 -0.000000 0.000000 0.000000 0.000000 0.000000 0.000000
90.098937 79.647604 374.701258 -0.054943 0.191442 36.193575 -0.068709 -0.186944 -36.193595 -0.000000 0.000000 0.000000 -0.000000 0.000000 0.000000 0.000000 0.000000 0.000000 -0.000000 0.000000 0.000000 -2.481852 -1.735922 0.646753 3.128288 4.955351 -1.689837 -2.047461 -1.106417 0.959549 0.000000 0.000000 0.000000 0.000000 0.000000 0.000000 -0.667982 -1.048954 -0.204347 1.957502 -1.064408 -0.286548 -0.792653 0.377210 0.754831 -1.117061 -2.305742 0.201577 0.000000 0.000000 0.000000 0.000000 0.000000 0.000000 -0.068709 -0.186944 -36.193595 -0.000000 0.000000 0.000000 -0.000000 0.000000 0.000000 0.000000 0.000000 0.000000 -0.068709 -0.186944 -36.193595 -0.000000 0.000000 0.000000 -0.000000 0.000000 0.000000 0.000000 0.000000 0.000000
90.113235 79.661507 374.642737 -0.087421 0.267418 36.163714 -0.087225 -0.267482 -36.163714 -0.000000 0.000000 0.000000 -0.144373 0.895730 0.230053 0.000000 0.000000 0.000000 -0.000000 0.000000 0.000000 -3.282692 -2.339211 0.843673 4.750129 6.902464 -2.395140 -3.046503 -1.840018 1.273681 0.000000 0.000000 0.000000 0.000000 0.000000 0.000000 -0.943628 -1.496103 -0.297238 2.751450 -1.428669 -0.399797 -1.234729 0.908398 1.003393 -1.278753 -3.406489 0.263693 0.000000 0.000000 0.000000 0.000000 0.000000 0.000000 -0.087225 -0.267482 -36.163714 -0.000000 0.000000 0.000000 -0.000000 0.000000 0.000000 0.000000 0.000000 0.000000 -0.087225 -0.267482 -36.163714 -0.000000 0.000000 0.000000 -0.000000 0.000000 0.000000 0.000000 0.000000 0.000000
90.116548 79.673223 374.594779 -0.123235 0.330247 36.103602 -0.095030 -0.339440 -36.103529 -0.000000 0.000000 0.000000 -0.213612 1.150783 0.295759 0.000000 0.000000 0.000000 -0.851131 -0.184825 -0.057298 -2.891916 -2.547164 1.024181 6.351007 8.508041 -3.009080 -4.070223 -2.685327 1.500703 0.000000 0.000000 0.000000 0.000000 0.000000 0.000000 -1.179906 -1.891635 -0.382748 3.421757 -1.679309 -0.492484 -1.710127 1.657848 1.166195 -1.182002 -4.482878 0.300732 0.000000 0.000000 0.000000 0.000000 0.000000 0.000000 -0.095030 -0.339440 -36.103529 -0.000000 0.000000 0.000000 -0.000000 0.000000 0.000000 0.000000 0.000000 0.000000 -0.095030 -0.339440 -36.103529 -0.000000 0.000000 0.000000 -0.000000 0.000000 0.000000 0.000000 0.000000 0.000000
